<?xml version="1.0" encoding="UTF-8" standalone="no"?>
<!DOCTYPE svg PUBLIC "-//W3C//DTD SVG 1.1//EN"
 "http://www.w3.org/Graphics/SVG/1.1/DTD/svg11.dtd">
<!-- Generated by graphviz version 2.47.0 (20210316.1410)
 -->
<!-- Title: snakemake_dag Pages: 1 -->
<svg width="220pt" height="260pt"
 viewBox="0.00 0.00 219.50 260.00" xmlns="http://www.w3.org/2000/svg" xmlns:xlink="http://www.w3.org/1999/xlink">
<g id="graph0" class="graph" transform="scale(1 1) rotate(0) translate(4 256)">
<title>snakemake_dag</title>
<polygon fill="white" stroke="transparent" points="-4,4 -4,-256 215.5,-256 215.5,4 -4,4"/>
<!-- 0 -->
<g id="node1" class="node">
<title>0</title>
<path fill="none" stroke="#c6d856" stroke-width="2" stroke-dasharray="5,2" d="M97.5,-108C97.5,-108 67.5,-108 67.5,-108 61.5,-108 55.5,-102 55.5,-96 55.5,-96 55.5,-84 55.5,-84 55.5,-78 61.5,-72 67.5,-72 67.5,-72 97.5,-72 97.5,-72 103.5,-72 109.5,-78 109.5,-84 109.5,-84 109.5,-96 109.5,-96 109.5,-102 103.5,-108 97.5,-108"/>
<text text-anchor="middle" x="82.5" y="-87.5" font-family="sans" font-size="10.00">rgi_bwt</text>
</g>
<!-- 1 -->
<g id="node2" class="node">
<title>1</title>
<path fill="none" stroke="#56a2d8" stroke-width="2" stroke-dasharray="5,2" d="M179.5,-180C179.5,-180 123.5,-180 123.5,-180 117.5,-180 111.5,-174 111.5,-168 111.5,-168 111.5,-156 111.5,-156 111.5,-150 117.5,-144 123.5,-144 123.5,-144 179.5,-144 179.5,-144 185.5,-144 191.5,-150 191.5,-156 191.5,-156 191.5,-168 191.5,-168 191.5,-174 185.5,-180 179.5,-180"/>
<text text-anchor="middle" x="151.5" y="-159.5" font-family="sans" font-size="10.00">trimmomatic</text>
</g>
<!-- 1&#45;&gt;0 -->
<g id="edge1" class="edge">
<title>1&#45;&gt;0</title>
<path fill="none" stroke="grey" stroke-width="2" d="M134.44,-143.7C126,-135.14 115.68,-124.66 106.46,-115.3"/>
<polygon fill="grey" stroke="grey" stroke-width="2" points="108.87,-112.77 99.36,-108.1 103.89,-117.68 108.87,-112.77"/>
</g>
<!-- 5 -->
<g id="node6" class="node">
<title>5</title>
<path fill="none" stroke="#56d87b" stroke-width="2" stroke-dasharray="5,2" d="M179.5,-108C179.5,-108 139.5,-108 139.5,-108 133.5,-108 127.5,-102 127.5,-96 127.5,-96 127.5,-84 127.5,-84 127.5,-78 133.5,-72 139.5,-72 139.5,-72 179.5,-72 179.5,-72 185.5,-72 191.5,-78 191.5,-84 191.5,-84 191.5,-96 191.5,-96 191.5,-102 185.5,-108 179.5,-108"/>
<text text-anchor="middle" x="159.5" y="-87.5" font-family="sans" font-size="10.00">assembly</text>
</g>
<!-- 1&#45;&gt;5 -->
<g id="edge6" class="edge">
<title>1&#45;&gt;5</title>
<path fill="none" stroke="grey" stroke-width="2" d="M153.48,-143.7C154.36,-135.98 155.42,-126.71 156.4,-118.11"/>
<polygon fill="grey" stroke="grey" stroke-width="2" points="159.89,-118.44 157.55,-108.1 152.93,-117.64 159.89,-118.44"/>
</g>
<!-- 2 -->
<g id="node3" class="node">
<title>2</title>
<path fill="none" stroke="#78d856" stroke-width="2" stroke-dasharray="5,2" d="M199.5,-252C199.5,-252 103.5,-252 103.5,-252 97.5,-252 91.5,-246 91.5,-240 91.5,-240 91.5,-228 91.5,-228 91.5,-222 97.5,-216 103.5,-216 103.5,-216 199.5,-216 199.5,-216 205.5,-216 211.5,-222 211.5,-228 211.5,-228 211.5,-240 211.5,-240 211.5,-246 205.5,-252 199.5,-252"/>
<text text-anchor="middle" x="151.5" y="-237" font-family="sans" font-size="10.00">get_data</text>
<text text-anchor="middle" x="151.5" y="-226" font-family="sans" font-size="10.00">sample: ERR2241633</text>
</g>
<!-- 2&#45;&gt;1 -->
<g id="edge3" class="edge">
<title>2&#45;&gt;1</title>
<path fill="none" stroke="grey" stroke-width="2" d="M151.5,-215.7C151.5,-207.98 151.5,-198.71 151.5,-190.11"/>
<polygon fill="grey" stroke="grey" stroke-width="2" points="155,-190.1 151.5,-180.1 148,-190.1 155,-190.1"/>
</g>
<!-- 3 -->
<g id="node4" class="node">
<title>3</title>
<path fill="none" stroke="#d8a456" stroke-width="2" stroke-dasharray="5,2" d="M73,-180C73,-180 12,-180 12,-180 6,-180 0,-174 0,-168 0,-168 0,-156 0,-156 0,-150 6,-144 12,-144 12,-144 73,-144 73,-144 79,-144 85,-150 85,-156 85,-156 85,-168 85,-168 85,-174 79,-180 73,-180"/>
<text text-anchor="middle" x="42.5" y="-159.5" font-family="sans" font-size="10.00">rgi_env_setup</text>
</g>
<!-- 3&#45;&gt;0 -->
<g id="edge2" class="edge">
<title>3&#45;&gt;0</title>
<path fill="none" stroke="grey" stroke-width="2" d="M52.39,-143.7C56.99,-135.64 62.56,-125.89 67.65,-116.98"/>
<polygon fill="grey" stroke="grey" stroke-width="2" points="70.8,-118.52 72.73,-108.1 64.73,-115.05 70.8,-118.52"/>
</g>
<!-- 4 -->
<g id="node5" class="node">
<title>4</title>
<path fill="none" stroke="#d85656" stroke-width="2" d="M108.5,-36C108.5,-36 78.5,-36 78.5,-36 72.5,-36 66.5,-30 66.5,-24 66.5,-24 66.5,-12 66.5,-12 66.5,-6 72.5,0 78.5,0 78.5,0 108.5,0 108.5,0 114.5,0 120.5,-6 120.5,-12 120.5,-12 120.5,-24 120.5,-24 120.5,-30 114.5,-36 108.5,-36"/>
<text text-anchor="middle" x="93.5" y="-15.5" font-family="sans" font-size="10.00">main</text>
</g>
<!-- 3&#45;&gt;4 -->
<g id="edge5" class="edge">
<title>3&#45;&gt;4</title>
<path fill="none" stroke="grey" stroke-width="2" d="M39.99,-143.89C38.01,-125.42 36.97,-95.51 46.5,-72 50.7,-61.64 57.85,-51.95 65.32,-43.76"/>
<polygon fill="grey" stroke="grey" stroke-width="2" points="68.02,-46.01 72.49,-36.4 63.01,-41.12 68.02,-46.01"/>
</g>
<!-- 5&#45;&gt;4 -->
<g id="edge4" class="edge">
<title>5&#45;&gt;4</title>
<path fill="none" stroke="grey" stroke-width="2" d="M143.19,-71.7C135.19,-63.22 125.43,-52.86 116.68,-43.58"/>
<polygon fill="grey" stroke="grey" stroke-width="2" points="119.03,-40.98 109.63,-36.1 113.94,-45.78 119.03,-40.98"/>
</g>
</g>
</svg>
